<mxfile host="app.diagrams.net" modified="2023-07-21T04:30:28.234Z" agent="Mozilla/5.0 (Windows NT 10.0; Win64; x64) AppleWebKit/537.36 (KHTML, like Gecko) Chrome/114.0.0.0 Safari/537.36" etag="qKhI1rdW-mztcjS3nJ_4" version="21.5.2" type="github">
  <diagram id="R2lEEEUBdFMjLlhIrx00" name="Page-1">
    <mxGraphModel dx="1434" dy="764" grid="1" gridSize="10" guides="1" tooltips="1" connect="1" arrows="1" fold="1" page="1" pageScale="1" pageWidth="850" pageHeight="1100" math="0" shadow="0" extFonts="Permanent Marker^https://fonts.googleapis.com/css?family=Permanent+Marker">
      <root>
        <mxCell id="0" />
        <mxCell id="1" parent="0" />
        <mxCell id="JmWvaxKSnPiP1oyLPMmi-11" style="edgeStyle=orthogonalEdgeStyle;rounded=0;orthogonalLoop=1;jettySize=auto;html=1;" edge="1" parent="1" source="JmWvaxKSnPiP1oyLPMmi-1" target="JmWvaxKSnPiP1oyLPMmi-8">
          <mxGeometry relative="1" as="geometry" />
        </mxCell>
        <mxCell id="JmWvaxKSnPiP1oyLPMmi-1" value="Users" style="shape=umlActor;verticalLabelPosition=bottom;verticalAlign=top;html=1;outlineConnect=0;" vertex="1" parent="1">
          <mxGeometry x="280" y="70" width="30" height="60" as="geometry" />
        </mxCell>
        <mxCell id="JmWvaxKSnPiP1oyLPMmi-13" style="edgeStyle=orthogonalEdgeStyle;rounded=0;orthogonalLoop=1;jettySize=auto;html=1;" edge="1" parent="1" source="JmWvaxKSnPiP1oyLPMmi-2" target="JmWvaxKSnPiP1oyLPMmi-8">
          <mxGeometry relative="1" as="geometry" />
        </mxCell>
        <mxCell id="JmWvaxKSnPiP1oyLPMmi-2" value="Admins" style="shape=umlActor;verticalLabelPosition=bottom;verticalAlign=top;html=1;outlineConnect=0;" vertex="1" parent="1">
          <mxGeometry x="530" y="70" width="30" height="60" as="geometry" />
        </mxCell>
        <mxCell id="JmWvaxKSnPiP1oyLPMmi-12" style="edgeStyle=orthogonalEdgeStyle;rounded=0;orthogonalLoop=1;jettySize=auto;html=1;" edge="1" parent="1" source="JmWvaxKSnPiP1oyLPMmi-7" target="JmWvaxKSnPiP1oyLPMmi-8">
          <mxGeometry relative="1" as="geometry" />
        </mxCell>
        <mxCell id="JmWvaxKSnPiP1oyLPMmi-7" value="Subscribers" style="shape=umlActor;verticalLabelPosition=bottom;verticalAlign=top;html=1;outlineConnect=0;" vertex="1" parent="1">
          <mxGeometry x="405" y="70" width="30" height="60" as="geometry" />
        </mxCell>
        <mxCell id="JmWvaxKSnPiP1oyLPMmi-17" style="edgeStyle=orthogonalEdgeStyle;rounded=0;orthogonalLoop=1;jettySize=auto;html=1;entryX=0;entryY=0.5;entryDx=0;entryDy=0;exitX=0.25;exitY=1;exitDx=0;exitDy=0;" edge="1" parent="1" source="JmWvaxKSnPiP1oyLPMmi-8" target="JmWvaxKSnPiP1oyLPMmi-15">
          <mxGeometry relative="1" as="geometry" />
        </mxCell>
        <mxCell id="JmWvaxKSnPiP1oyLPMmi-8" value="Login / Register" style="rounded=0;whiteSpace=wrap;html=1;" vertex="1" parent="1">
          <mxGeometry x="120" y="200" width="600" height="60" as="geometry" />
        </mxCell>
        <mxCell id="JmWvaxKSnPiP1oyLPMmi-18" style="edgeStyle=orthogonalEdgeStyle;rounded=0;orthogonalLoop=1;jettySize=auto;html=1;" edge="1" parent="1" source="JmWvaxKSnPiP1oyLPMmi-15" target="JmWvaxKSnPiP1oyLPMmi-8">
          <mxGeometry relative="1" as="geometry" />
        </mxCell>
        <mxCell id="JmWvaxKSnPiP1oyLPMmi-19" value="if false" style="edgeLabel;html=1;align=center;verticalAlign=middle;resizable=0;points=[];" vertex="1" connectable="0" parent="JmWvaxKSnPiP1oyLPMmi-18">
          <mxGeometry x="-0.1" relative="1" as="geometry">
            <mxPoint as="offset" />
          </mxGeometry>
        </mxCell>
        <mxCell id="JmWvaxKSnPiP1oyLPMmi-22" style="edgeStyle=orthogonalEdgeStyle;rounded=0;orthogonalLoop=1;jettySize=auto;html=1;entryX=1;entryY=0.5;entryDx=0;entryDy=0;entryPerimeter=0;" edge="1" parent="1" source="JmWvaxKSnPiP1oyLPMmi-15" target="JmWvaxKSnPiP1oyLPMmi-20">
          <mxGeometry relative="1" as="geometry">
            <mxPoint x="420" y="420" as="targetPoint" />
          </mxGeometry>
        </mxCell>
        <mxCell id="JmWvaxKSnPiP1oyLPMmi-24" style="edgeStyle=orthogonalEdgeStyle;rounded=0;orthogonalLoop=1;jettySize=auto;html=1;" edge="1" parent="1" source="JmWvaxKSnPiP1oyLPMmi-15">
          <mxGeometry relative="1" as="geometry">
            <mxPoint x="200" y="430" as="targetPoint" />
          </mxGeometry>
        </mxCell>
        <mxCell id="JmWvaxKSnPiP1oyLPMmi-26" value="if true" style="edgeLabel;html=1;align=center;verticalAlign=middle;resizable=0;points=[];" vertex="1" connectable="0" parent="JmWvaxKSnPiP1oyLPMmi-24">
          <mxGeometry x="0.0909" y="-1" relative="1" as="geometry">
            <mxPoint as="offset" />
          </mxGeometry>
        </mxCell>
        <mxCell id="JmWvaxKSnPiP1oyLPMmi-49" style="edgeStyle=orthogonalEdgeStyle;rounded=0;orthogonalLoop=1;jettySize=auto;html=1;" edge="1" parent="1" source="JmWvaxKSnPiP1oyLPMmi-15" target="JmWvaxKSnPiP1oyLPMmi-46">
          <mxGeometry relative="1" as="geometry" />
        </mxCell>
        <mxCell id="JmWvaxKSnPiP1oyLPMmi-50" value="if true" style="edgeLabel;html=1;align=center;verticalAlign=middle;resizable=0;points=[];" vertex="1" connectable="0" parent="JmWvaxKSnPiP1oyLPMmi-49">
          <mxGeometry x="-0.05" y="3" relative="1" as="geometry">
            <mxPoint as="offset" />
          </mxGeometry>
        </mxCell>
        <mxCell id="JmWvaxKSnPiP1oyLPMmi-15" value="Checking Condition" style="rhombus;whiteSpace=wrap;html=1;" vertex="1" parent="1">
          <mxGeometry x="380" y="300" width="80" height="80" as="geometry" />
        </mxCell>
        <mxCell id="JmWvaxKSnPiP1oyLPMmi-20" value="Database&lt;br&gt;phpmyadmin" style="strokeWidth=2;html=1;shape=mxgraph.flowchart.database;whiteSpace=wrap;" vertex="1" parent="1">
          <mxGeometry x="10" y="290" width="100" height="100" as="geometry" />
        </mxCell>
        <mxCell id="JmWvaxKSnPiP1oyLPMmi-31" value="Home Page" style="swimlane;childLayout=stackLayout;horizontal=1;startSize=50;horizontalStack=0;rounded=1;fontSize=14;fontStyle=0;strokeWidth=2;resizeParent=0;resizeLast=1;shadow=0;dashed=0;align=center;arcSize=4;whiteSpace=wrap;html=1;" vertex="1" parent="1">
          <mxGeometry x="120" y="430" width="160" height="140" as="geometry" />
        </mxCell>
        <mxCell id="JmWvaxKSnPiP1oyLPMmi-32" value="- banner&lt;br&gt;- service&lt;br&gt;- review&lt;br&gt;- about us&lt;br&gt;- contact us" style="align=left;strokeColor=none;fillColor=none;spacingLeft=4;fontSize=12;verticalAlign=top;resizable=0;rotatable=0;part=1;html=1;" vertex="1" parent="JmWvaxKSnPiP1oyLPMmi-31">
          <mxGeometry y="50" width="160" height="90" as="geometry" />
        </mxCell>
        <mxCell id="JmWvaxKSnPiP1oyLPMmi-37" value="Subscription Page" style="swimlane;childLayout=stackLayout;horizontal=1;startSize=50;horizontalStack=0;rounded=1;fontSize=14;fontStyle=0;strokeWidth=2;resizeParent=0;resizeLast=1;shadow=0;dashed=0;align=center;arcSize=4;whiteSpace=wrap;html=1;" vertex="1" parent="1">
          <mxGeometry x="435" y="640" width="160" height="120" as="geometry" />
        </mxCell>
        <mxCell id="JmWvaxKSnPiP1oyLPMmi-38" value="&amp;nbsp;" style="align=left;strokeColor=none;fillColor=none;spacingLeft=4;fontSize=12;verticalAlign=top;resizable=0;rotatable=0;part=1;html=1;" vertex="1" parent="JmWvaxKSnPiP1oyLPMmi-37">
          <mxGeometry y="50" width="160" height="70" as="geometry" />
        </mxCell>
        <mxCell id="JmWvaxKSnPiP1oyLPMmi-40" value="Booking Page" style="swimlane;childLayout=stackLayout;horizontal=1;startSize=50;horizontalStack=0;rounded=1;fontSize=14;fontStyle=0;strokeWidth=2;resizeParent=0;resizeLast=1;shadow=0;dashed=0;align=center;arcSize=4;whiteSpace=wrap;html=1;" vertex="1" parent="1">
          <mxGeometry x="40" y="640" width="160" height="180" as="geometry" />
        </mxCell>
        <mxCell id="JmWvaxKSnPiP1oyLPMmi-41" value="+ Service Location&lt;br&gt;+ Service Type&lt;br&gt;+ Number of Cat&lt;br&gt;+ Breed&lt;br&gt;+ Size of Cat&lt;br&gt;+ Date + Time&lt;br&gt;+ Note&lt;br&gt;+ Nights&lt;br&gt;" style="align=left;strokeColor=none;fillColor=none;spacingLeft=4;fontSize=12;verticalAlign=top;resizable=0;rotatable=0;part=1;html=1;" vertex="1" parent="JmWvaxKSnPiP1oyLPMmi-40">
          <mxGeometry y="50" width="160" height="130" as="geometry" />
        </mxCell>
        <mxCell id="JmWvaxKSnPiP1oyLPMmi-44" value="Feedback Page" style="swimlane;childLayout=stackLayout;horizontal=1;startSize=50;horizontalStack=0;rounded=1;fontSize=14;fontStyle=0;strokeWidth=2;resizeParent=0;resizeLast=1;shadow=0;dashed=0;align=center;arcSize=4;whiteSpace=wrap;html=1;" vertex="1" parent="1">
          <mxGeometry x="240" y="640" width="160" height="170" as="geometry" />
        </mxCell>
        <mxCell id="JmWvaxKSnPiP1oyLPMmi-45" value="+ name&lt;br&gt;+ email&lt;br&gt;+ phone&lt;br&gt;+ address&lt;br&gt;+ comment&lt;br&gt;+ service enquiry&lt;br&gt;+ rating" style="align=left;strokeColor=none;fillColor=none;spacingLeft=4;fontSize=12;verticalAlign=top;resizable=0;rotatable=0;part=1;html=1;" vertex="1" parent="JmWvaxKSnPiP1oyLPMmi-44">
          <mxGeometry y="50" width="160" height="120" as="geometry" />
        </mxCell>
        <mxCell id="JmWvaxKSnPiP1oyLPMmi-46" value="Admin Panel" style="swimlane;childLayout=stackLayout;horizontal=1;startSize=50;horizontalStack=0;rounded=1;fontSize=14;fontStyle=0;strokeWidth=2;resizeParent=0;resizeLast=1;shadow=0;dashed=0;align=center;arcSize=4;whiteSpace=wrap;html=1;" vertex="1" parent="1">
          <mxGeometry x="590" y="430" width="160" height="140" as="geometry" />
        </mxCell>
        <mxCell id="JmWvaxKSnPiP1oyLPMmi-47" value="- Dashboard&lt;br&gt;- User Management&lt;br&gt;- Booking Management&lt;br&gt;- Feedback Management" style="align=left;strokeColor=none;fillColor=none;spacingLeft=4;fontSize=12;verticalAlign=top;resizable=0;rotatable=0;part=1;html=1;" vertex="1" parent="JmWvaxKSnPiP1oyLPMmi-46">
          <mxGeometry y="50" width="160" height="90" as="geometry" />
        </mxCell>
      </root>
    </mxGraphModel>
  </diagram>
</mxfile>
